Coordinates	
version=1	
nRows=379	
nColumns=2	
inDegrees=yes	
endheader	
time	elbow_flexion
0	40.00000004
0.002939163	39.99255677
0.006983092	39.95810521
0.009975545	39.91469787
0.012967998	39.85620862
0.01596045	39.78276459
0.018952903	39.69451388
0.021945355	39.59159245
0.024937808	39.47416103
0.027930261	39.34236804
0.030922713	39.19638926
0.033915166	39.0363779
0.036450349	38.88997878
0.038985532	38.73373645
0.042201331	38.52156551
0.04443759	38.36490611
0.046673849	38.20085786
0.049409513	37.99023324
0.051830419	37.79482404
0.054251325	37.59104837
0.056672232	37.37900489
0.059093138	37.15879303
0.061514044	36.93051332
0.06393495	36.69426715
0.066355857	36.45015685
0.068776763	36.19828589
0.071197669	35.93875834
0.073618576	35.67167917
0.076039482	35.3971543
0.078460388	35.11529051
0.080881294	34.82619537
0.083302201	34.52997731
0.085723107	34.22674556
0.088144013	33.91661006
0.09056492	33.59968162
0.092985826	33.27607178
0.095406732	32.94589292
0.097827638	32.60925791
0.100248545	32.2662804
0.102669451	31.91707499
0.105090357	31.561757
0.107511264	31.20044271
0.10993217	30.83324947
0.112353076	30.46029566
0.114773982	30.0817006
0.117194889	29.69758476
0.119615795	29.30806921
0.122036701	28.9132759
0.124457608	28.51332772
0.126878514	28.10834838
0.12929942	27.69846239
0.131720326	27.28379508
0.134141233	26.86447235
0.136562139	26.44062052
0.138983045	26.01236604
0.141403952	25.57983557
0.143824858	25.14315582
0.146245764	24.70245365
0.14866667	24.25785603
0.151087577	23.80948991
0.153508483	23.35748231
0.155929389	22.90196026
0.158350295	22.44305099
0.160771202	21.98088137
0.163192108	21.51557803
0.165613014	21.04726746
0.168033921	20.57607586
0.170454827	20.10212888
0.172875733	19.62555132
0.175296639	19.14646682
0.177717546	18.66499682
0.180138452	18.18125949
0.182559358	17.69536992
0.184980265	17.20744219
0.187401171	16.71759032
0.189822077	16.22592851
0.192242983	15.73257046
0.19466389	15.23763025
0.197084796	14.74122101
0.199505702	14.24345694
0.201926609	13.74444999
0.204347515	13.24431498
0.206768421	12.74316225
0.209189327	12.241113
0.211610234	11.73828292
0.21403114	11.23482479
0.216452046	10.7308806
0.21857976	10.28775757
0.220707473	9.844579161
0.222835186	9.401578915
0.2249629	8.958982583
0.227658254	8.399389986
0.229665201	7.983894561
0.231672148	7.56984381
0.234218423	7.047279559
0.236484913	6.585567798
0.238751402	6.127997632
0.241017891	5.675661298
0.243284381	5.229719341
0.245267362	4.845918492
0.247250343	4.469086521
0.249693058	4.016174921
0.252135774	3.577864597
0.254149464	3.229315575
0.256163154	2.893892711
0.258665095	2.497832693
0.260876969	2.169106735
0.263088843	1.862806705
0.265300718	1.581116702
0.267512592	1.326222029
0.269724467	1.100165776
0.271936341	0.904883116
0.274148216	0.742071176
0.27636009	0.613208017
0.278571965	0.51944937
0.280783839	0.46163935
0.282995713	0.440244394
0.285796548	0.465520471
0.288109942	0.530064612
0.290423335	0.633207884
0.292736728	0.773650412
0.295657576	1.001635269
0.298578425	1.282338915
0.301499273	1.611100702
0.304420121	1.982803784
0.30734097	2.392191243
0.310261818	2.833914358
0.313182667	3.302825703
0.316103515	3.793665861
0.319024363	4.301681059
0.321945212	4.822718962
0.325003609	5.378279461
0.327722205	5.877816851
0.330440802	6.380395543
0.333159398	6.884200199
0.335216931	7.265311961
0.337274464	7.645636112
0.340219515	8.18765395
0.343164567	8.72582388
0.345192055	9.093573052
0.347219544	9.458783535
0.350227472	9.99547133
0.3532354	10.5255328
0.355200128	10.8679653
0.357164856	11.20727912
0.360370455	11.75398447
0.363136866	12.21870394
0.365253929	12.56980279
0.367370991	12.91689666
0.37017008	13.36956294
0.372969169	13.81500074
0.375006187	14.13455056
0.377043204	14.45016094
0.379904424	14.88673134
0.382765643	15.31531849
0.38476571	15.61010845
0.386765777	15.90090169
0.389843585	16.34049604
0.39254996	16.71904257
0.394729325	17.01837362
0.396908689	17.31275028
0.399616892	17.67159291
0.402325095	18.0226433
0.404419467	18.28873576
0.40651384	18.5500907
0.409363293	18.89800699
0.412212746	19.23701865
0.41426086	19.47515034
0.416308974	19.70861827
0.419232228	20.03371728
0.422155481	20.34919727
0.424116586	20.55541815
0.426077692	20.75726283
0.429202118	21.06975818
0.431943826	21.33473705
0.434165195	21.54306383
0.436386564	21.74567341
0.439089279	21.98444937
0.441791995	22.21470319
0.443955044	22.39282244
0.446118092	22.56545213
0.448881352	22.77797935
0.451644611	22.98150716
0.453749293	23.13047804
0.455853975	23.27421027
0.458683696	23.45919013
0.461513416	23.63467894
0.46354418	23.75476522
0.465574945	23.86995757
0.468474512	24.02594779
0.471215427	24.16422898
0.473411117	24.26857371
0.475606808	24.3672026
0.478324367	24.48136517
0.481041926	24.58679003
0.483159779	24.66290061
0.485277632	24.73372053
0.488097779	24.81982693
0.490917927	24.89659141
0.49298439	24.94692561
0.495050854	24.99227058
0.497951962	25.04753712
0.500853071	25.09303711
0.502849968	25.11870388
0.504846866	25.13977982
0.507862042	25.16293962
0.510877218	25.17572775
0.512768179	25.17848309
0.51465914	25.17719886
0.517921193	25.16553617
0.52077967	25.14554211
0.522971585	25.12406584
0.5251635	25.09728746
0.527945711	25.05571506
0.53043458	25.01143068
0.53292345	24.96052671
0.53541232	24.90305773
0.537901189	24.83907683
0.540390059	24.76863862
0.542878929	24.69179912
0.545367799	24.60861569
0.547856668	24.51914706
0.550345538	24.42345325
0.552834408	24.32159559
0.555323277	24.21363667
0.557812147	24.09964031
0.560301017	23.97967154
0.562789887	23.85379658
0.565278756	23.72208283
0.567767626	23.5845988
0.570256496	23.44141409
0.572745365	23.29259941
0.575234235	23.13822651
0.577723105	22.97836815
0.580211974	22.81309826
0.582700844	22.64249176
0.585189714	22.46662414
0.587678584	22.28557202
0.590167453	22.09941289
0.592656323	21.90822511
0.595145193	21.71208788
0.597634062	21.51108122
0.600122932	21.30528593
0.602611802	21.09478357
0.605100672	20.87965643
0.607589541	20.65998748
0.610078411	20.43586037
0.612567281	20.2073594
0.61505615	19.97456943
0.61754502	19.73757595
0.62003389	19.496465
0.62252276	19.25132312
0.625011629	19.00223738
0.627500499	18.74929522
0.629989369	18.4925847
0.632478238	18.23219407
0.634967108	17.96821203
0.637455978	17.70072759
0.639944848	17.42983017
0.642433717	17.15560947
0.644922587	16.87815545
0.647411457	16.59755835
0.649900326	16.31390858
0.652389196	16.0272967
0.654878066	15.73781346
0.657366936	15.44554975
0.659855805	15.15059659
0.662344675	14.85304518
0.664833545	14.55298668
0.667322414	14.25051224
0.669811284	13.94571306
0.672300154	13.63868027
0.674789024	13.32950494
0.677277893	13.01827836
0.679766763	12.70509275
0.682255633	12.39004157
0.684744502	12.07322113
0.687233372	11.75473239
0.689722242	11.43468261
0.692211112	11.1131885
0.694699981	10.7903807
0.697188851	10.46640715
0.699677721	10.1414323
0.70216659	9.815644833
0.70465546	9.4892569
0.70714433	9.162519217
0.7096332	8.835709251
0.712122069	8.509165094
0.714610939	8.183241912
0.716640025	7.918305104
0.718669112	7.654321403
0.721256642	7.319546562
0.723844173	6.987461691
0.725851292	6.732210713
0.727858412	6.479404223
0.73047329	6.154424188
0.733088168	5.835305297
0.735060822	5.599119137
0.737033477	5.367385893
0.739689298	5.063391835
0.742345119	4.769811329
0.744291121	4.562154714
0.746237123	4.361447411
0.748947688	4.094620039
0.751291441	3.876992652
0.753635195	3.672646506
0.755978948	3.482629036
0.758322701	3.307992504
0.76042168	3.16544804
0.762520658	3.036706514
0.764619637	2.922382212
0.76742568	2.793044747
0.769773363	2.706246203
0.772121046	2.639547451
0.774468729	2.593345845
0.776816411	2.567912273
0.779164094	2.563348632
0.781511777	2.579618651
0.78385946	2.616517347
0.787205815	2.703970331
0.788966405	2.765920499
0.790726995	2.838494292
0.794259165	3.014785225
0.797791335	3.229500243
0.801323505	3.479236408
0.804855675	3.760316721
0.806838857	3.930444411
0.808822038	4.108542777
0.81219396	4.427750708
0.815565882	4.764764709
0.818009413	5.018331604
0.820452945	5.278440207
0.822896477	5.5440283
0.825878246	5.874052131
0.828324978	6.148625499
0.83077171	6.425650756
0.833218442	6.704350407
0.835665174	6.983994313
0.838111907	7.263934807
0.840558639	7.543578912
0.843005371	7.822401164
0.845452103	8.099928018
0.847898835	8.375740021
0.850345567	8.649463803
0.852792299	8.920771875
0.855239031	9.189376594
0.857685763	9.455027206
0.860132495	9.717504949
0.862579227	9.976619702
0.865025959	10.23220612
0.867472691	10.48412058
0.869919423	10.73223817
0.872366155	10.97645023
0.874812887	11.21666187
0.877259619	11.4527899
0.879706351	11.6847623
0.882153083	11.9125164
0.884599815	12.13599619
0.887046547	12.35515095
0.88949328	12.56993425
0.891940012	12.78030338
0.894386744	12.98621892
0.896833476	13.18764433
0.899280208	13.38454535
0.90172694	13.57689018
0.904173672	13.76464894
0.906620404	13.94779344
0.909067136	14.12629705
0.911513868	14.30013472
0.9139606	14.46928286
0.916407332	14.63371942
0.918854064	14.79342383
0.921300796	14.948377
0.923747528	15.0985613
0.92619426	15.24396058
0.928640992	15.38456007
0.931087724	15.52034648
0.933534456	15.65130801
0.935981188	15.77743428
